<?xml version="1.0" standalone="no"?>
<!DOCTYPE svg PUBLIC "-//W3C//DTD SVG 20010904//EN"
 "http://www.w3.org/TR/2001/REC-SVG-20010904/DTD/svg10.dtd">
<svg version="1.0" xmlns="http://www.w3.org/2000/svg"
 width="454.000000pt" height="410.000000pt" viewBox="0 0 454.000000 410.000000"
 preserveAspectRatio="xMidYMid meet">

<g transform="translate(0.000000,410.000000) scale(0.100000,-0.100000)"
fill="#000000" stroke="none">
<path d="M2123 3920 c-440 -36 -845 -218 -1161 -524 -494 -477 -690 -1167
-521 -1831 84 -333 272 -653 519 -888 227 -216 458 -353 760 -449 174 -56 259
-40 295 57 36 92 -11 170 -121 200 -476 131 -843 425 -1049 840 -124 252 -171
472 -162 765 10 322 90 573 268 840 78 118 289 332 409 415 175 122 393 213
614 257 158 32 443 32 596 -1 334 -71 585 -206 820 -441 327 -327 484 -723
466 -1180 -15 -411 -156 -739 -441 -1026 -126 -127 -213 -197 -355 -282 -94
-56 -144 -71 -237 -72 -134 0 -242 60 -322 181 -60 90 -81 168 -81 305 0 112
0 114 24 120 13 3 35 17 48 31 21 22 23 34 25 133 l2 109 66 65 c82 81 122
163 135 279 6 45 10 207 10 360 0 275 0 277 21 277 12 0 36 15 55 34 46 46 46
86 0 132 -34 34 -34 34 -130 34 l-96 0 0 271 c0 166 -4 278 -10 290 -29 53
-121 61 -160 12 -19 -24 -20 -39 -20 -299 l0 -274 -120 0 -120 0 0 265 c0 293
-3 311 -60 335 -43 18 -89 3 -117 -39 -22 -33 -23 -40 -23 -297 l0 -262 -101
-4 c-96 -3 -102 -4 -125 -31 -49 -57 -20 -149 51 -163 l34 -6 3 -341 c4 -302
6 -348 23 -392 27 -73 75 -144 133 -197 l52 -46 0 -105 c0 -98 2 -108 25 -135
14 -16 36 -32 49 -36 23 -6 23 -9 29 -143 9 -246 80 -417 235 -570 111 -109
218 -162 377 -184 154 -21 310 11 448 91 717 422 1077 1164 946 1950 -121 728
-668 1326 -1385 1514 -188 49 -432 71 -621 56z m163 -1676 c-25 -53 -45 -98
-44 -99 2 -2 49 -26 106 -54 l103 -52 -28 -22 c-50 -42 -288 -223 -303 -232
-12 -7 -13 -6 -4 6 6 8 48 64 92 126 l81 111 -97 38 c-53 20 -99 39 -102 41
-2 2 50 57 115 123 65 66 121 117 123 115 3 -3 -16 -48 -42 -101z"/>
</g>
</svg>
