<?xml version="1.0" standalone="no"?>
<!DOCTYPE svg PUBLIC "-//W3C//DTD SVG 20010904//EN"
 "http://www.w3.org/TR/2001/REC-SVG-20010904/DTD/svg10.dtd">
<svg version="1.0" xmlns="http://www.w3.org/2000/svg"
 width="474.000000pt" height="474.000000pt" viewBox="0 0 474.000000 474.000000"
 preserveAspectRatio="xMidYMid meet">
<metadata>
Created by potrace 1.16, written by Peter Selinger 2001-2019
</metadata>
<g transform="translate(0.000000,474.000000) scale(0.100000,-0.100000)"
fill="#000000" stroke="none">
<path d="M1498 3964 c-6 -5 -103 -18 -267 -34 -57 -6 -111 -15 -120 -21 -12
-8 -10 -9 9 -4 19 5 22 4 10 -4 -8 -6 -40 -16 -70 -23 -74 -16 -157 -68 -144
-90 3 -5 0 -7 -7 -6 -7 2 -17 -6 -23 -17 -6 -11 -21 -37 -34 -57 -13 -21 -20
-43 -16 -54 5 -16 4 -16 -5 -4 -6 8 -11 13 -11 10 0 -3 -11 -50 -25 -105 -14
-55 -28 -143 -32 -195 -5 -52 -8 -520 -8 -1040 0 -994 1 -1022 46 -1190 52
-192 165 -298 374 -349 158 -39 285 -43 1285 -38 923 4 958 4 1050 25 275 60
379 152 441 392 36 137 39 241 39 1195 0 939 -3 1028 -36 1185 -34 159 -146
320 -223 320 -12 0 -29 9 -38 20 -10 11 -25 20 -35 20 -10 0 -37 4 -60 10 -24
5 -56 12 -72 16 -17 3 -25 8 -19 12 6 4 -10 8 -35 9 -26 0 -126 6 -222 12
-170 10 -1743 15 -1752 5z m1102 -129 c916 -7 937 -9 960 -96 10 -35 9 -44 -7
-62 -10 -12 -19 -24 -20 -26 -3 -4 -18 -7 -133 -22 -54 -7 -156 -8 -277 -4
-187 6 -288 1 -278 -15 3 -5 0 -12 -7 -16 -7 -4 -10 -4 -6 1 4 4 3 14 -3 22
-13 15 -65 18 -73 4 -4 -5 4 -7 16 -3 13 3 19 1 14 -6 -4 -6 14 -17 46 -27 29
-10 91 -38 138 -63 282 -150 486 -389 584 -685 89 -265 84 -545 -14 -804 -156
-414 -523 -710 -960 -774 -127 -18 -332 -7 -456 25 -99 25 -245 81 -286 110
-18 13 -43 7 -255 -66 -128 -44 -236 -79 -238 -77 -2 3 18 114 44 248 l48 245
-39 60 c-135 209 -195 435 -185 696 13 321 129 587 352 805 133 131 250 208
415 273 41 16 84 33 95 38 23 9 31 11 65 14 l25 2 -25 8 c-14 4 -19 8 -12 9 7
1 10 6 6 12 -5 8 -67 9 -218 4 -116 -4 -214 -9 -218 -11 -4 -3 -46 -6 -94 -9
-47 -2 -103 -10 -123 -16 -21 -7 -94 -13 -176 -13 -119 0 -146 3 -180 19 -37
18 -40 24 -43 65 -3 42 0 48 42 89 29 29 58 47 83 52 21 4 169 6 328 4 160 -3
639 -7 1065 -10z"/>
<path d="M2304 3449 c-3 -6 -17 -8 -29 -5 -39 10 -151 -21 -236 -65 -20 -11
-46 -19 -56 -19 -11 0 -28 -9 -38 -20 -10 -11 -21 -18 -25 -15 -3 2 -17 -6
-31 -18 -13 -12 -44 -35 -68 -51 -48 -31 -201 -180 -201 -195 0 -6 -6 -14 -12
-18 -16 -10 -55 -65 -68 -95 -6 -13 -22 -43 -36 -68 -14 -25 -27 -53 -30 -62
-2 -10 -6 -26 -9 -35 -3 -10 -11 -41 -19 -70 -52 -185 -41 -412 29 -599 35
-96 107 -224 157 -278 22 -25 22 -26 -7 -166 -13 -63 -21 -117 -19 -120 3 -2
19 2 37 9 18 7 71 26 118 43 l85 31 80 -46 c162 -93 340 -134 537 -124 170 9
284 41 430 122 236 129 413 363 483 634 25 98 26 115 21 265 -4 153 -19 241
-56 338 -5 12 -8 25 -8 28 2 11 -70 139 -109 195 -38 54 -194 215 -194 200 0
-4 -7 0 -15 7 -32 29 -45 39 -45 33 0 -3 -9 4 -20 15 -21 21 -68 45 -82 42 -5
-1 -8 3 -8 9 0 6 -7 9 -15 5 -8 -3 -15 -1 -15 5 0 13 -90 51 -107 45 -8 -3
-11 -1 -8 4 3 6 3 10 -2 10 -4 0 -52 9 -106 20 -108 22 -291 27 -303 9z m-226
-417 c10 -10 31 -49 47 -88 15 -38 38 -92 50 -120 46 -105 44 -119 -25 -199
-24 -28 -40 -56 -40 -71 0 -28 58 -108 147 -205 55 -59 180 -142 254 -169 54
-19 79 -7 138 70 47 61 58 70 86 70 47 0 311 -132 320 -160 7 -22 0 -85 -16
-137 -12 -39 -88 -109 -155 -143 -65 -33 -175 -33 -289 -1 -106 30 -304 127
-386 189 -127 97 -326 333 -387 460 -46 96 -71 243 -53 310 14 57 94 178 130
197 40 22 156 20 179 -3z"/>
</g>
</svg>
