<svg width="32" height="32" viewBox="0 0 32 32" xmlns="http://www.w3.org/2000/svg" aria-hidden="true">
  <path fill="#fff" d="M16 3a13 13 0 0 0-11.2 19.5L3 29l6.7-1.7A13 13 0 1 0 16 3zm7.6 18.6c-.3.8-1.6 1.5-2.2 1.5-.6.1-1.3.2-4.3-.9-3.6-1.4-5.9-5-6.1-5.3-.2-.3-1.4-1.9-1.4-3.6 0-1.7.9-2.5 1.2-2.8.3-.3.7-.4.9-.4h.6c.2 0 .4 0 .6.5.2.5.8 2 1 2.2.1.3.1.4 0 .6-.1.2-.2.4-.4.6-.2.1-.4.4-.2.7.2.3.9 1.5 1.9 2.5 1.3 1.2 2.4 1.6 2.8 1.8.3.1.6.1.8-.1.2-.2 1-.9 1.2-1.2.3-.2.5-.2.8-.1.3.1 1.9.9 2.2 1 .3.1.5.2.6.3.1.1.1 1-.2 1.8z"/>
</svg>
